<svg width="0" height="0" class="hidden">
  <symbol version="1.1" xmlns="http://www.w3.org/2000/svg" xmlns:xlink="http://www.w3.org/1999/xlink" xmlnsSketch="http://www.bohemiancoding.com/sketch/ns" viewBox="-0.5 0 19 19" id="bin">
    <title>icon/18/icon-delete</title>
    <desc>Created with Sketch.</desc>
    <defs></defs>
    <g id="out" stroke="none" stroke-width="1" sketchType="MSPage">
      <path d="M4.91666667,14.8888889 C4.91666667,15.3571429 5.60416667,16 6.0625,16 L12.9375,16 C13.3958333,16 14.0833333,15.3571429 14.0833333,14.8888889 L14.0833333,6 L4.91666667,6 L4.91666667,14.8888889 L4.91666667,14.8888889 L4.91666667,14.8888889 Z M15,3.46500003 L12.5555556,3.46500003 L11.3333333,2 L7.66666667,2 L6.44444444,3.46500003 L4,3.46500003 L4,4.93000007 L15,4.93000007 L15,3.46500003 L15,3.46500003 L15,3.46500003 Z" id="path"  sketchType="MSShapeGroup"></path>
    </g>
  </symbol>

  <symbol xmlns="http://www.w3.org/2000/svg" viewBox="0 0 24 24" id="cart">
    <path d="M7.5 18C8.32843 18 9 18.6716 9 19.5C9 20.3284 8.32843 21 7.5 21C6.67157 21 6 20.3284 6 19.5C6 18.6716 6.67157 18 7.5 18Z" ></path>
    <path d="M16.5 18.0001C17.3284 18.0001 18 18.6716 18 19.5001C18 20.3285 17.3284 21.0001 16.5 21.0001C15.6716 21.0001 15 20.3285 15 19.5001C15 18.6716 15.6716 18.0001 16.5 18.0001Z" ></path>
    <path d="M2 3L2.26121 3.09184C3.5628 3.54945 4.2136 3.77826 4.58584 4.32298C4.95808 4.86771 4.95808 5.59126 4.95808 7.03836V9.76C4.95808 12.7016 5.02132 13.6723 5.88772 14.5862C6.75412 15.5 8.14857 15.5 10.9375 15.5H12M16.2404 15.5C17.8014 15.5 18.5819 15.5 19.1336 15.0504C19.6853 14.6008 19.8429 13.8364 20.158 12.3075L20.6578 9.88275C21.0049 8.14369 21.1784 7.27417 20.7345 6.69708C20.2906 6.12 18.7738 6.12 17.0888 6.12H11.0235M4.95808 6.12H7" ></path>
  </symbol>

 <symbol version="1.1" xmlns="http://www.w3.org/2000/svg" xmlns:xlink="http://www.w3.org/1999/xlink" viewBox="0 0 20 20" id="directory-close">
    <title>directory_close [#1654]</title>
    <desc>Created with Sketch.</desc>
    <defs></defs>
    <g id="Page-1" stroke="none" stroke-width="1">
      <g id="Dribbble-Light-Preview" transform="translate(-340.000000, -1679.000000)" >
        <g id="icons" transform="translate(56.000000, 160.000000)">
          <path d="M292.5858,1528.1721 L293.9998,1529.5861 L295.4138,1528.1721 L296.8288,1529.5861 L295.4138,1531.0001 L296.8288,1532.4151 L295.4138,1533.8291 L293.9998,1532.4151 L292.5858,1533.8291 L291.1718,1532.4151 L292.5858,1531.0001 L291.1718,1529.5861 L292.5858,1528.1721 Z M301.9998,1537.0001 L285.9998,1537.0001 L285.9998,1521.0001 L290.8458,1521.0001 L292.8038,1525.0001 L301.9998,1525.0001 L301.9998,1537.0001 Z M293.8668,1523.0001 L291.8668,1519.0001 L283.9998,1519.0001 L283.9998,1539.0001 L303.9998,1539.0001 L303.9998,1523.0001 L293.8668,1523.0001 Z" id="directory_close-[#1654]" ></path>
        </g>
      </g>
    </g>
  </symbol>

	  <symbol xmlns="http://www.w3.org/2000/svg" viewBox="0 0 24 24" id="head-gear">
    <defs></defs>
    <g id="human_resource">
      <path d="M9.14,22.5V19.68a0,0,0,0,0-.05,0H7.27a2,2,0,0,1-1.95-2V14.86l-1.91-.95,1.9-3.81V9.47a7.86,7.86,0,0,1,7.13-8,7.61,7.61,0,0,1,8.14,7.62,10.49,10.49,0,0,1-2.86,7.2V22.5"></path>
      <circle cx="12.95" cy="10.09" r="2.86"></circle>
      <line x1="12.95" y1="6.27" x2="12.95" y2="7.23"></line>
      <line x1="12.95" y1="13.91" x2="12.95" y2="12.95"></line>
      <line x1="9.65" y1="8.18" x2="10.47" y2="8.66"></line>
      <line x1="16.26" y1="12" x2="15.43" y2="11.52"></line>
      <line x1="16.26" y1="8.18" x2="15.43" y2="8.66"></line>
      <line x1="9.65" y1="12" x2="10.47" y2="11.52"></line>
    </g>
  </symbol>

 <symbol version="1.1" id="light-bulb" xmlns="http://www.w3.org/2000/svg" xmlns:xlink="http://www.w3.org/1999/xlink" xml:space="preserve" viewBox="0 0 512 512">
    <g>
      <path d="M428.215,172.215c0.008-47.522-19.292-90.648-50.445-121.777C346.649,19.293,303.515-0.007,256,0
		c-47.514-0.007-90.648,19.293-121.769,50.446c-31.153,31.121-50.454,74.247-50.446,121.769
		c-0.008,31.786,8.673,61.634,23.754,87.181h-0.008c0.016,0.032,0.048,0.064,0.064,0.096c0.04,0.064,0.065,0.128,0.104,0.192
		l0.016-0.007c10.98,19.436,26.7,34.724,38.945,48.835c6.167,7.056,11.452,13.751,15,20.014c3.572,6.295,5.382,11.908,5.502,17.53
		v95.421c0.008,29.44,23.858,53.296,53.305,53.304h7.64C233.312,504.96,243.787,512,256,512c12.213,0,22.688-7.04,27.894-17.218
		h7.64c29.447-0.008,53.296-23.865,53.304-53.304v-95.414v-0.008c0.12-5.622,1.93-11.236,5.502-17.53
		c5.302-9.419,14.592-19.709,24.762-30.914c10.074-11.179,20.982-23.352,29.191-37.936l0.008,0.007
		c0.032-0.048,0.056-0.111,0.088-0.16c0.024-0.048,0.056-0.08,0.08-0.128h-0.008C419.542,233.849,428.223,204.001,428.215,172.215z
		 M311.828,461.771c-5.23,5.214-12.325,8.401-20.294,8.409h-71.068c-7.969-0.008-15.064-3.195-20.294-8.409
		c-5.213-5.23-8.401-12.333-8.409-20.294v-5.326l120.128,25.54C311.868,461.715,311.852,461.747,311.828,461.771z M320.237,441.477
		c0,1.754-0.216,3.452-0.513,5.11l-127.96-27.205v-33.524l128.473,27.316V441.477z M320.237,396.397L191.764,369.08V358.1h128.473
		V396.397z M383.143,247.142l-0.104,0.169l-0.064,0.112c-8.505,15.408-22.92,29.848-36.159,44.904
		c-6.607,7.576-12.918,15.361-17.867,24.034c-3.003,5.286-5.39,11.036-6.935,17.13H189.986c-1.546-6.102-3.932-11.844-6.944-17.13
		c-7.432-12.982-17.867-24.081-27.893-35.246c-10.059-11.1-19.733-22.159-26.124-33.692l-0.08-0.128l-0.089-0.152
		c-13.005-21.959-20.462-47.514-20.47-74.928c0.008-40.803,16.506-77.626,43.238-104.374C178.374,41.1,215.197,24.61,256,24.602
		C296.804,24.61,333.627,41.1,360.375,67.84c26.732,26.748,43.23,63.571,43.238,104.374
		C403.605,199.628,396.149,225.183,383.143,247.142z"></path>
    </g>
  </symbol>

	 <symbol xmlns="http://www.w3.org/2000/svg" viewBox="0 0 24 24" id="pen">
    <path d="M11.4001 18.1612L11.4001 18.1612L18.796 10.7653C17.7894 10.3464 16.5972 9.6582 15.4697 8.53068C14.342 7.40298 13.6537 6.21058 13.2348 5.2039L5.83882 12.5999L5.83879 12.5999C5.26166 13.1771 4.97307 13.4657 4.7249 13.7838C4.43213 14.1592 4.18114 14.5653 3.97634 14.995C3.80273 15.3593 3.67368 15.7465 3.41556 16.5208L2.05445 20.6042C1.92743 20.9852 2.0266 21.4053 2.31063 21.6894C2.59466 21.9734 3.01478 22.0726 3.39584 21.9456L7.47918 20.5844C8.25351 20.3263 8.6407 20.1973 9.00498 20.0237C9.43469 19.8189 9.84082 19.5679 10.2162 19.2751C10.5343 19.0269 10.823 18.7383 11.4001 18.1612Z" ></path>
    <path d="M20.8482 8.71306C22.3839 7.17735 22.3839 4.68748 20.8482 3.15178C19.3125 1.61607 16.8226 1.61607 15.2869 3.15178L14.3999 4.03882C14.4121 4.0755 14.4246 4.11268 14.4377 4.15035C14.7628 5.0875 15.3763 6.31601 16.5303 7.47002C17.6843 8.62403 18.9128 9.23749 19.85 9.56262C19.8875 9.57563 19.9245 9.58817 19.961 9.60026L20.8482 8.71306Z"></path>
  </symbol>

	 <symbol  version="1.1" id="quotes" xmlns="http://www.w3.org/2000/svg" xmlns:xlink="http://www.w3.org/1999/xlink" xml:space="preserve" viewBox="0 0 32 32">
    <g>
      <path d="M23,9c-2.8,0-5,2.2-5,5s2.2,5,5,5c0.3,0,0.7,0,1-0.1c-1.3,1.3-3,2.1-5,2.1c-0.6,0-1,0.4-1,1s0.4,1,1,1c5,0,9-4,9-9
		C28,11.2,25.8,9,23,9z"></path>
      <path d="M9,9c-2.8,0-5,2.2-5,5s2.2,5,5,5c0.3,0,0.7,0,1-0.1C8.7,20.2,7,21,5,21c-0.6,0-1,0.4-1,1s0.4,1,1,1c5,0,9-4,9-9
		C14,11.2,11.8,9,9,9z"></path>
    </g>
  </symbol>

  <symbol xmlnsDc="http://purl.org/dc/elements/1.1/" xmlnsCc="http://creativecommons.org/ns#" xmlnsRdf="http://www.w3.org/1999/02/22-rdf-syntax-ns#" xmlns="http://www.w3.org/2000/svg" version="1.1" id="close" viewBox="0 0 16 16">
    <metadata id="metadata5">
      <rdf:RDF>
        <cc:Work>
          <dc:format>image/svg+xml</dc:format>
          <dc:type rdfResource="http://purl.org/dc/dcmitype/StillImage"></dc:type>
          <dc:title></dc:title>
          <dc:date>2021</dc:date>
          <dc:creator>
            <cc:Agent>
              <dc:title>Timothée Giet</dc:title>
            </cc:Agent>
          </dc:creator>
          <cc:license rdfResource="http://creativecommons.org/licenses/by-sa/4.0/"></cc:license>
        </cc:Work>
        <cc:License rdfAbout="http://creativecommons.org/licenses/by-sa/4.0/">
          <cc:permits rdfResource="http://creativecommons.org/ns#Reproduction"></cc:permits>
          <cc:permits rdfResource="http://creativecommons.org/ns#Distribution"></cc:permits>
          <cc:requires rdfResource="http://creativecommons.org/ns#Notice"></cc:requires>
          <cc:requires rdfResource="http://creativecommons.org/ns#Attribution"></cc:requires>
          <cc:permits rdfResource="http://creativecommons.org/ns#DerivativeWorks"></cc:permits>
          <cc:requires rdfResource="http://creativecommons.org/ns#ShareAlike"></cc:requires>
        </cc:License>
      </rdf:RDF>
    </metadata>
    <rect transform="rotate(45)" ry="0" y="-1" x="4.3137083" height="2" width="14" id="rect1006"></rect>
    <rect transform="rotate(-45)" ry="0" y="10.313708" x="-7" height="2" width="14" id="rect1006-5"></rect>
  </symbol>
</svg>
